<?xml version="1.0" encoding="utf-8"?>
<!-- Generator: Adobe Illustrator 16.0.0, SVG Export Plug-In . SVG Version: 6.00 Build 0)  -->
<!DOCTYPE svg PUBLIC "-//W3C//DTD SVG 1.1//EN" "http://www.w3.org/Graphics/SVG/1.1/DTD/svg11.dtd">
<svg version="1.1" id="Layer_1" xmlns="http://www.w3.org/2000/svg" xmlns:xlink="http://www.w3.org/1999/xlink" x="0px" y="0px"
	 width="84.75px" height="51.25px" viewBox="0 0 84.75 51.25" enable-background="new 0 0 84.75 51.25" xml:space="preserve">
<g>
	<g>
		<g>
			<path fill="#FFFFFF" d="M44.744,12.752c1.205-1.031,2.281-1.879,3.471-2.591c0.855-0.513,1.77-0.955,2.83-1.343
				c3.498-1.284,6.99,0.895,9.594,3.069c3.789,3.161,8.396,6.488,13.439,7.084c5.26,0.621,9.891-3.267,10.158-8.466
				c0.15-2.938-1.209-5.441-3.338-7.196c-2.484-2.048-5.73,2.828-4.666,2.689c0.354-0.047,0.701-0.055,1.035,0.025
				c3.867,0.936,2.605,6.259-0.021,7.969c-2.85,1.853-7.502-1.252-9.822-2.736c-4.225-2.7-10.168-9.604-16.91-9.533
				c-0.465,0.005-0.898,0.067-1.305,0.178c-3.4,0.924-6.681,4.683-7.836,7.703C40.309,12.385,42.513,14.659,44.744,12.752z"/>
		</g>
		<path fill="#FFFFFF" d="M79.734,30.838c-2.984-1.393-7.844,1.611-5.453,4.971c0.781,1.1,1.752,1.826,2.195,3.158
			c0.459,1.383,0.035,2.742-0.693,3.934c-1.82,2.963-6.16,3.438-9.018,1.91c-1.852-0.988-4.6-3.195-6.486-5.334
			c-0.781-0.887-8.25-7.346-10.066-9.287c-2.814-3.011-6.062-5.667-9.602-7.781c-2.563-1.531-11.053-5.385-11.455-5.574
			c-6.904-3.23-16.26-2.594-21.808,2.155c-3.643,3.119-6.559,8.246-6.935,13.065c-0.349,4.441,0.722,11.16,4.382,13.943
			c0.909,0.689,2.518,0.91,3.209-0.182c0.548-0.863,0.189-1.82-0.449-2.779c-1.172-1.76-2.088-3.477-2.469-5.613
			c-0.409-2.312-0.18-4.727,0.376-6.957c1.593-6.421,7.732-11.901,14.573-11.251c1.636,0.157,4.519,0.924,6.998,1.987
			c1.787,0.767,10.484,4.624,11.921,5.533c3.31,2.094,6.325,4.76,8.883,7.715c1.777,2.055,9.029,8.416,9.684,9.115
			c3.51,3.742,8.729,6.592,13.307,7.002c6.422,0.578,12.994-5.182,13.406-11.49C84.426,36.137,82.445,32.102,79.734,30.838z"/>
		<path fill="#FFFFFF" d="M0.461,31.555c-0.011,0.465-0.199,1.621-0.089,3.811c0.065,1.301,0.192,2.537,0.485,3.803
			c0.515,2.24,1.357,4.588,2.88,6.348c0.896,1.039,2.067,1.988,3.249,2.688c8.189,4.842,18.314,2.215,23.533-5.27
			c2.607-3.74,11.017-19.979,15.808-29.139c1.289-2.465,3.682-5.924,5.902-7.655c1.463-1.141,4.811-2.636,6.576-1.454
			C53.436,0.18,43.73,0.983,38.065,4.608c-2.918,1.867-4.559,4.737-6.42,7.56c-4.678,7.097-9.443,17.317-13.382,24.836
			c-2.13,4.062-5.896,7.828-10.769,5.83C3.086,41.023,0.86,36.061,0.461,31.555z"/>
		<path fill="#FFFFFF" d="M35.679,44.303c1.803,0.902,2.843,0.977,3.403,0.803c1.719-0.531,2.822-1.887,3.81-3.314
			c5.01-7.25,8.313-15.61,12.209-23.458c2.963-5.967,5.176-10.98,10.391-15.349c3.986-3.338,8.025-3.201,12.312-1.489
			c1.363,0.544,2.83,1.363,3.883,2.537c-2.143-0.498-3.969,1.351-5.211,2.92c-1.35,1.703-2.324,3.687-3.229,5.652
			c-2.416,5.271-4.227,10.792-6.609,16.076c-2.787,6.178-6.52,14.4-12.057,18.588c-4.189,3.168-13.695,5.504-17.681,0.613
			C35.74,46.455,35.513,45.205,35.679,44.303z"/>
	</g>
</g>
</svg>
